# xmcd CD database file
#
# Track frame offsets:
#	150
#	14853
#	27152
#	37662
#	57250
#	71399
#	89010
#	111960
#	156027
#	175011
#	201602
#	222801
#
# Disc length: 3306 seconds
#
# Revision: 3
# Processed by: cddbd v1.5PL3 Copyright (c) Steve Scherf et al.
# Submitted via: CDex 1.51
#
DISCID=a40ce80c
DTITLE=George Shearing - Lullabies of Birdland - A Musical Biography 
DYEAR=2000
DGENRE=Jazz
TTITLE0=September in the Rain
TTITLE1=Lullaby of Birdland
TTITLE2=Mambo Inn
TTITLE3=Darn that Dream
TTITLE4=Heart and Soul
TTITLE5=For Every Man There's a Woman
TTITLE6=Too Late Now
TTITLE7=Love for Sale
TTITLE8=Alone Together
TTITLE9=Emily
TTITLE10=It Might as Well Be Spring
TTITLE11=I Cover the Waterfront
EXTD=YEAR: 2000
EXTT0=
EXTT1=
EXTT2=
EXTT3=
EXTT4=
EXTT5=
EXTT6=
EXTT7=
EXTT8=
EXTT9=
EXTT10=
EXTT11=
PLAYORDER=
